<?xml version="1.0" encoding="UTF-8" standalone="no"?>
<!-- Created with Inkscape (http://www.inkscape.org/) -->

<svg
   inkscape:version="1.2.2 (b0a8486541, 2022-12-01)"
   sodipodi:docname="recouvrement_rectangle_disque_3.svg"
   xml:space="preserve"
   id="svg5"
   version="1.1"
   viewBox="0 0 63.068302 39.466183"
   height="39.466183mm"
   width="63.068302mm"
   xmlns:inkscape="http://www.inkscape.org/namespaces/inkscape"
   xmlns:sodipodi="http://sodipodi.sourceforge.net/DTD/sodipodi-0.dtd"
   xmlns="http://www.w3.org/2000/svg"
   xmlns:svg="http://www.w3.org/2000/svg"><sodipodi:namedview
     id="namedview7"
     pagecolor="#ffffff"
     bordercolor="#666666"
     borderopacity="1.0"
     inkscape:showpageshadow="2"
     inkscape:pageopacity="0.0"
     inkscape:pagecheckerboard="0"
     inkscape:deskcolor="#d1d1d1"
     inkscape:document-units="mm"
     showgrid="false"
     inkscape:zoom="2.8284271"
     inkscape:cx="-158.39192"
     inkscape:cy="105.18213"
     inkscape:window-width="2512"
     inkscape:window-height="1011"
     inkscape:window-x="1968"
     inkscape:window-y="32"
     inkscape:window-maximized="1"
     inkscape:current-layer="svg5" /><defs
     id="defs2"><marker
   style="overflow:visible"
   id="marker1774"
   refX="0"
   refY="0"
   orient="auto-start-reverse"
   inkscape:stockid="TriangleStart"
   markerWidth="5.3244081"
   markerHeight="6.155385"
   viewBox="0 0 5.3244081 6.1553851"
   inkscape:isstock="true"
   inkscape:collect="always"
   preserveAspectRatio="xMidYMid"><path
     transform="scale(0.5)"
     style="fill:context-stroke;fill-rule:evenodd;stroke:context-stroke;stroke-width:1pt"
     d="M 5.77,0 -2.88,5 V -5 Z"
     id="path1772" /></marker><marker
   style="overflow:visible"
   id="TriangleStart"
   refX="0"
   refY="0"
   orient="auto-start-reverse"
   inkscape:stockid="TriangleStart"
   markerWidth="5.3244081"
   markerHeight="6.155385"
   viewBox="0 0 5.3244081 6.1553851"
   inkscape:isstock="true"
   inkscape:collect="always"
   preserveAspectRatio="xMidYMid"><path
     transform="scale(0.5)"
     style="fill:context-stroke;fill-rule:evenodd;stroke:context-stroke;stroke-width:1pt"
     d="M 5.77,0 -2.88,5 V -5 Z"
     id="path135" /></marker><clipPath
   id="clipPath2001">
      <path
   clip-rule="nonzero"
   d="m 7,3 h 4 V 8.300781 H 7 Z m 0,0"
   id="path2824" />
    </clipPath>
  <clipPath
   id="clipPath4597">
      <path
   clip-rule="nonzero"
   d="m 7,3 h 4 V 8.300781 H 7 Z m 0,0"
   id="path4870" />
    </clipPath>
  <clipPath
   id="clipPath7976">
      <path
   clip-rule="nonzero"
   d="m 7,3 h 5 V 8.300781 H 7 Z m 0,0"
   id="path9005" />
    </clipPath>
  <clipPath
   id="clipPath1253">
      <path
   clip-rule="nonzero"
   d="m 8,0 h 4.933594 V 7.730469 H 8 Z m 0,0"
   id="path4163" />
    </clipPath>
  </defs><g
     inkscape:label="Calque 1"
     inkscape:groupmode="layer"
     id="layer1"
     transform="translate(-43.246113,-159.22751)"><ellipse
       style="fill:#e52818;fill-opacity:1;stroke:none;stroke-width:0.264999;stop-color:#000000"
       id="path1580"
       cx="87.104759"
       cy="178.9606"
       rx="19.209654"
       ry="19.733091" /><rect
       style="fill:#91cf4f;fill-opacity:0.85;stroke:none;stroke-width:0.264999;stop-color:#000000"
       id="rect1688"
       width="38.142326"
       height="21.572731"
       x="43.246113"
       y="168.17426" /><rect
       style="fill:#1082bb;fill-opacity:0.51115513;fill-rule:nonzero;stroke:none;stroke-width:0.264999;stop-color:#000000"
       id="rect5751"
       width="14.373122"
       height="22.751251"
       x="67.437485"
       y="167.53741" /><circle
       style="fill:#ffb822;fill-opacity:0.503876;fill-rule:nonzero;stroke:#ffb822;stroke-width:0.0654513;stroke-dasharray:none;stroke-opacity:0.972549;stop-color:#000000"
       id="path7243"
       cx="79.458214"
       cy="171.061"
       r="1.2164214" /><g
       inkscape:label=""
       transform="matrix(1.927004,0,0,1.927004,53.041196,176.06328)"
       id="g2837"><g
   fill="#000000"
   fill-opacity="1"
   id="g17"
   transform="matrix(0.352778,0,0,0.352778,-0.15434,0.0787576)">
    <g
   id="use15"
   transform="translate(0,6.8080001)">
      <path
   d="M 6.75,-1.609375 H 6.5 c -0.046875,0.25 -0.09375,0.484375 -0.1875,0.71875 -0.046875,0.15625 -0.078125,0.25 -0.65625,0.25 H 4.859375 C 5,-1.203125 5.296875,-1.6875 5.75,-2.34375 c 0.46875,-0.703125 0.875,-1.390625 0.875,-2.1875 0,-1.375 -1.34375,-2.5 -3.03125,-2.5 -1.703125,0 -3.03125,1.140625 -3.03125,2.5 0,0.796875 0.40625,1.484375 0.875,2.1875 0.4375,0.65625 0.75,1.140625 0.890625,1.703125 H 1.53125 C 0.953125,-0.640625 0.921875,-0.734375 0.875,-0.875 0.78125,-1.109375 0.734375,-1.359375 0.6875,-1.609375 h -0.25 L 0.765625,0 h 1.59375 c 0.21875,0 0.25,0 0.25,-0.203125 0,-0.703125 -0.3125,-1.578125 -0.53125,-2.21875 -0.21875,-0.578125 -0.5,-1.359375 -0.5,-2.109375 0,-1.59375 1.109375,-2.28125 2.015625,-2.28125 0.953125,0 2.015625,0.71875 2.015625,2.28125 0,0.75 -0.28125,1.5 -0.5625,2.3125 -0.15625,0.421875 -0.46875,1.328125 -0.46875,2.015625 C 4.578125,0 4.609375,0 4.828125,0 h 1.59375 z m 0,0"
   id="path29" />
    </g>
  </g>
  <g
   clip-path="url(#clipPath2001)"
   id="g23"
   transform="matrix(0.352778,0,0,0.352778,-0.15434,0.0787576)">
    <g
   fill="#000000"
   fill-opacity="1"
   id="g21">
      <g
   id="use19"
   transform="translate(7.1950002,8.302)">
        <path
   d="m 2.328125,-4.4375 c 0,-0.1875 0,-0.1875 -0.203125,-0.1875 -0.453125,0.4375 -1.078125,0.4375 -1.359375,0.4375 v 0.25 c 0.15625,0 0.625,0 1,-0.1875 v 3.546875 c 0,0.234375 0,0.328125 -0.6875,0.328125 H 0.8125 V 0 c 0.125,0 0.984375,-0.03125 1.234375,-0.03125 0.21875,0 1.09375,0.03125 1.25,0.03125 V -0.25 H 3.03125 c -0.703125,0 -0.703125,-0.09375 -0.703125,-0.328125 z m 0,0"
   id="path33" />
      </g>
    </g>
  </g>
</g><g
       inkscape:label=""
       transform="matrix(1.927004,0,0,1.927004,90.375617,176.06328)"
       id="g3005"><g
   fill="#000000"
   fill-opacity="1"
   id="g2995"
   transform="matrix(0.352778,0,0,0.352778,-0.15434,0.0787576)">
    <g
   id="g2993"
   transform="translate(0,6.8080001)">
      <path
   d="M 6.75,-1.609375 H 6.5 c -0.046875,0.25 -0.09375,0.484375 -0.1875,0.71875 -0.046875,0.15625 -0.078125,0.25 -0.65625,0.25 H 4.859375 C 5,-1.203125 5.296875,-1.6875 5.75,-2.34375 c 0.46875,-0.703125 0.875,-1.390625 0.875,-2.1875 0,-1.375 -1.34375,-2.5 -3.03125,-2.5 -1.703125,0 -3.03125,1.140625 -3.03125,2.5 0,0.796875 0.40625,1.484375 0.875,2.1875 0.4375,0.65625 0.75,1.140625 0.890625,1.703125 H 1.53125 C 0.953125,-0.640625 0.921875,-0.734375 0.875,-0.875 0.78125,-1.109375 0.734375,-1.359375 0.6875,-1.609375 h -0.25 L 0.765625,0 h 1.59375 c 0.21875,0 0.25,0 0.25,-0.203125 0,-0.703125 -0.3125,-1.578125 -0.53125,-2.21875 -0.21875,-0.578125 -0.5,-1.359375 -0.5,-2.109375 0,-1.59375 1.109375,-2.28125 2.015625,-2.28125 0.953125,0 2.015625,0.71875 2.015625,2.28125 0,0.75 -0.28125,1.5 -0.5625,2.3125 -0.15625,0.421875 -0.46875,1.328125 -0.46875,2.015625 C 4.578125,0 4.609375,0 4.828125,0 h 1.59375 z m 0,0"
   id="path2991" />
    </g>
  </g>
  <g
   clip-path="url(#clipPath4597)"
   id="g3003"
   transform="matrix(0.352778,0,0,0.352778,-0.15434,0.0787576)">
    <g
   fill="#000000"
   fill-opacity="1"
   id="g3001">
      <g
   id="g2999"
   transform="translate(7.1950002,8.302)">
        <path
   d="M 3.515625,-1.265625 H 3.28125 c -0.015625,0.15625 -0.09375,0.5625 -0.1875,0.625 C 3.046875,-0.59375 2.515625,-0.59375 2.40625,-0.59375 H 1.125 c 0.734375,-0.640625 0.984375,-0.84375 1.390625,-1.171875 0.515625,-0.40625 1,-0.84375 1,-1.5 0,-0.84375 -0.734375,-1.359375 -1.625,-1.359375 -0.859375,0 -1.453125,0.609375 -1.453125,1.25 0,0.34375 0.296875,0.390625 0.375,0.390625 0.15625,0 0.359375,-0.125 0.359375,-0.375 0,-0.125 -0.046875,-0.375 -0.40625,-0.375 C 0.984375,-4.21875 1.453125,-4.375 1.78125,-4.375 c 0.703125,0 1.0625,0.546875 1.0625,1.109375 0,0.609375 -0.4375,1.078125 -0.65625,1.328125 L 0.515625,-0.265625 C 0.4375,-0.203125 0.4375,-0.1875 0.4375,0 h 2.875 z m 0,0"
   id="path2997" />
      </g>
    </g>
  </g>
</g><circle
       style="fill:#ffb822;fill-opacity:0.503876;fill-rule:nonzero;stroke:#ffb822;stroke-width:0.0654513;stroke-dasharray:none;stroke-opacity:0.972549;stop-color:#000000"
       id="circle12174"
       cx="79.458214"
       cy="174.23596"
       r="1.2164214" /><circle
       style="fill:#ffb822;fill-opacity:0.503876;fill-rule:nonzero;stroke:#ffb822;stroke-width:0.0654513;stroke-dasharray:none;stroke-opacity:0.972549;stop-color:#000000"
       id="circle12176"
       cx="79.458214"
       cy="177.41092"
       r="1.2164214" /><circle
       style="fill:#ffb822;fill-opacity:0.503876;fill-rule:nonzero;stroke:#ffb822;stroke-width:0.0654513;stroke-dasharray:none;stroke-opacity:0.972549;stop-color:#000000"
       id="circle12178"
       cx="79.458214"
       cy="180.58588"
       r="1.2164214" /><circle
       style="fill:#ffb822;fill-opacity:0.503876;fill-rule:nonzero;stroke:#ffb822;stroke-width:0.0654513;stroke-dasharray:none;stroke-opacity:0.972549;stop-color:#000000"
       id="circle12180"
       cx="79.458214"
       cy="183.76083"
       r="1.2164214" /><circle
       style="fill:#ffb822;fill-opacity:0.503876;fill-rule:nonzero;stroke:#ffb822;stroke-width:0.0654513;stroke-dasharray:none;stroke-opacity:0.972549;stop-color:#000000"
       id="circle12182"
       cx="79.458214"
       cy="186.93579"
       r="1.2164214" /><circle
       style="fill:#ffb822;fill-opacity:0.503876;fill-rule:nonzero;stroke:#ffb822;stroke-width:0.0654513;stroke-dasharray:none;stroke-opacity:0.972549;stop-color:#000000"
       id="circle12184"
       cx="76.283211"
       cy="186.93579"
       r="1.2164214" /><circle
       style="fill:#ffb822;fill-opacity:0.503876;fill-rule:nonzero;stroke:#ffb822;stroke-width:0.0654513;stroke-dasharray:none;stroke-opacity:0.972549;stop-color:#000000"
       id="circle12194"
       cx="76.283211"
       cy="171.061"
       r="1.2164214" /><circle
       style="fill:#ffb822;fill-opacity:0.503876;fill-rule:nonzero;stroke:#ffb822;stroke-width:0.0654513;stroke-dasharray:none;stroke-opacity:0.972549;stop-color:#000000"
       id="circle12186"
       cx="76.283211"
       cy="183.76083"
       r="1.2164214" /><circle
       style="fill:#ffb822;fill-opacity:0.503876;fill-rule:nonzero;stroke:#ffb822;stroke-width:0.0654513;stroke-dasharray:none;stroke-opacity:0.972549;stop-color:#000000"
       id="circle12192"
       cx="76.283211"
       cy="174.23596"
       r="1.2164214" /><g
       inkscape:label=""
       transform="matrix(1.927004,0,0,1.927004,64.312379,190.94819)"
       id="g3193"
       style="fill:#1081ba;fill-opacity:1"><g
   fill="#000000"
   fill-opacity="1"
   id="g3183"
   transform="matrix(0.352778,0,0,0.352778,-0.15434,0.0787576)"
   style="fill:#1081ba;fill-opacity:1">
    <g
   id="g3181"
   transform="translate(0,6.8080001)"
   style="fill:#1081ba;fill-opacity:1">
      <path
   d="M 6.75,-1.609375 H 6.5 c -0.046875,0.25 -0.09375,0.484375 -0.1875,0.71875 -0.046875,0.15625 -0.078125,0.25 -0.65625,0.25 H 4.859375 C 5,-1.203125 5.296875,-1.6875 5.75,-2.34375 c 0.46875,-0.703125 0.875,-1.390625 0.875,-2.1875 0,-1.375 -1.34375,-2.5 -3.03125,-2.5 -1.703125,0 -3.03125,1.140625 -3.03125,2.5 0,0.796875 0.40625,1.484375 0.875,2.1875 0.4375,0.65625 0.75,1.140625 0.890625,1.703125 H 1.53125 C 0.953125,-0.640625 0.921875,-0.734375 0.875,-0.875 0.78125,-1.109375 0.734375,-1.359375 0.6875,-1.609375 h -0.25 L 0.765625,0 h 1.59375 c 0.21875,0 0.25,0 0.25,-0.203125 0,-0.703125 -0.3125,-1.578125 -0.53125,-2.21875 -0.21875,-0.578125 -0.5,-1.359375 -0.5,-2.109375 0,-1.59375 1.109375,-2.28125 2.015625,-2.28125 0.953125,0 2.015625,0.71875 2.015625,2.28125 0,0.75 -0.28125,1.5 -0.5625,2.3125 -0.15625,0.421875 -0.46875,1.328125 -0.46875,2.015625 C 4.578125,0 4.609375,0 4.828125,0 h 1.59375 z m 0,0"
   id="path3179"
   style="fill:#1081ba;fill-opacity:1" />
    </g>
  </g>
  <g
   clip-path="url(#clipPath7976)"
   id="g3191"
   transform="matrix(0.352778,0,0,0.352778,-0.15434,0.0787576)"
   style="fill:#1081ba;fill-opacity:1">
    <g
   fill="#000000"
   fill-opacity="1"
   id="g3189"
   style="fill:#1081ba;fill-opacity:1">
      <g
   id="g3187"
   transform="translate(7.1950002,8.302)"
   style="fill:#1081ba;fill-opacity:1">
        <path
   d="m 2.8125,-2 c 0.34375,0.796875 0.75,1.8125 0.828125,1.90625 C 3.765625,0.0625 3.890625,0.0625 4,0.0625 h 0.140625 c 0.140625,0 0.203125,0 0.203125,-0.078125 0,-0.03125 -0.015625,-0.046875 -0.03125,-0.0625 -0.078125,-0.078125 -0.15625,-0.25 -0.1875,-0.3125 l -1.6875,-4 C 2.390625,-4.515625 2.25,-4.84375 1.5,-4.84375 c -0.078125,0 -0.171875,0 -0.171875,0.109375 0,0.078125 0.0625,0.09375 0.09375,0.09375 0.15625,0.015625 0.28125,0.046875 0.453125,0.4375 L 2.703125,-2.25 0.65625,-0.390625 c -0.078125,0.0625 -0.140625,0.125 -0.140625,0.234375 0,0.171875 0.140625,0.234375 0.234375,0.234375 0.140625,0 0.21875,-0.078125 0.234375,-0.109375 z m 0,0"
   id="path3185"
   style="fill:#1081ba;fill-opacity:1" />
      </g>
    </g>
  </g>
</g><circle
       style="fill:#ffb822;fill-opacity:0.503876;fill-rule:nonzero;stroke:#ffb822;stroke-width:0.0654513;stroke-dasharray:none;stroke-opacity:0.972549;stop-color:#000000"
       id="circle12188"
       cx="76.283211"
       cy="180.58588"
       r="1.2164214" /><circle
       style="fill:#ffb822;fill-opacity:0.503876;fill-rule:nonzero;stroke:#ffb822;stroke-width:0.0654513;stroke-dasharray:none;stroke-opacity:0.972549;stop-color:#000000"
       id="circle12190"
       cx="76.283211"
       cy="177.41092"
       r="1.2164214" /><circle
       style="fill:#ffb822;fill-opacity:0.503876;fill-rule:nonzero;stroke:#ffb822;stroke-width:0.0654513;stroke-dasharray:none;stroke-opacity:0.972549;stop-color:#000000"
       id="circle12196"
       cx="73.108208"
       cy="171.061"
       r="1.2164214" /><circle
       style="fill:#ffb822;fill-opacity:0.503876;fill-rule:nonzero;stroke:#ffb822;stroke-width:0.0654513;stroke-dasharray:none;stroke-opacity:0.972549;stop-color:#000000"
       id="circle12198"
       cx="73.108208"
       cy="174.23596"
       r="1.2164214" /><circle
       style="fill:#ffb822;fill-opacity:0.503876;fill-rule:nonzero;stroke:#ffb822;stroke-width:0.0654513;stroke-dasharray:none;stroke-opacity:0.972549;stop-color:#000000"
       id="circle12200"
       cx="73.108208"
       cy="177.41092"
       r="1.2164214" /><circle
       style="fill:#ffb822;fill-opacity:0.503876;fill-rule:nonzero;stroke:#ffb822;stroke-width:0.0654513;stroke-dasharray:none;stroke-opacity:0.972549;stop-color:#000000"
       id="circle12202"
       cx="73.108208"
       cy="180.58588"
       r="1.2164214" /><circle
       style="fill:#ffb822;fill-opacity:0.503876;fill-rule:nonzero;stroke:#ffb822;stroke-width:0.0654513;stroke-dasharray:none;stroke-opacity:0.972549;stop-color:#000000"
       id="circle12279"
       cx="73.108208"
       cy="183.76083"
       r="1.2164214" /><circle
       style="fill:#ffb822;fill-opacity:0.503876;fill-rule:nonzero;stroke:#ffb822;stroke-width:0.0654513;stroke-dasharray:none;stroke-opacity:0.972549;stop-color:#000000"
       id="circle12281"
       cx="73.108208"
       cy="186.93579"
       r="1.2164214" /><circle
       style="fill:#ffb822;fill-opacity:0.503876;fill-rule:nonzero;stroke:#ffb822;stroke-width:0.0654513;stroke-dasharray:none;stroke-opacity:0.972549;stop-color:#000000"
       id="circle12283"
       cx="69.933205"
       cy="183.76083"
       r="1.2164214" /><circle
       style="fill:#ffb822;fill-opacity:0.503876;fill-rule:nonzero;stroke:#ffb822;stroke-width:0.0654513;stroke-dasharray:none;stroke-opacity:0.972549;stop-color:#000000"
       id="circle12289"
       cx="69.933205"
       cy="174.23596"
       r="1.2164214" /><circle
       style="fill:#ffb822;fill-opacity:0.503876;fill-rule:nonzero;stroke:#ffb822;stroke-width:0.0654513;stroke-dasharray:none;stroke-opacity:0.972549;stop-color:#000000"
       id="circle12285"
       cx="69.933205"
       cy="180.58588"
       r="1.2164214" /><circle
       style="fill:#ffb822;fill-opacity:0.503876;fill-rule:nonzero;stroke:#ffb822;stroke-width:0.0654513;stroke-dasharray:none;stroke-opacity:0.972549;stop-color:#000000"
       id="circle12287"
       cx="69.933205"
       cy="177.41092"
       r="1.2164214" /><path
       style="fill:none;stroke:#000000;stroke-width:0.15;stroke-linecap:butt;stroke-linejoin:miter;stroke-opacity:1;stroke-dasharray:none;marker-start:url(#TriangleStart);marker-end:;marker-mid:url(#marker1774)"
       d="m 73.982761,171.90649 -1.720035,-1.72004 -4.825241,-5.57354"
       id="path1363" /></g><g
     inkscape:label=""
     transform="translate(19.78593,2.0943545)"
     id="g3581"><g
   fill="#000000"
   fill-opacity="1"
   id="g3571"
   transform="matrix(0.352778,0,0,0.352778,-0.198437,0.00136694)">
    <g
   id="g3569"
   transform="translate(0,6.9180002)">
      <path
   d="M 7.046875,-5.40625 C 7.1875,-5.53125 7.1875,-5.59375 7.1875,-5.625 c 0,-0.203125 -0.171875,-0.203125 -0.203125,-0.203125 -0.0625,0 -0.09375,0.015625 -0.28125,0.171875 L 5.9375,-4.984375 C 5.734375,-5.203125 5,-5.828125 3.875,-5.828125 c -1.59375,0 -2.921875,1.265625 -2.921875,2.921875 0,0.9375 0.375,1.484375 0.578125,1.765625 -0.15625,0.15625 -0.171875,0.15625 -0.75,0.671875 -0.203125,0.171875 -0.21875,0.203125 -0.21875,0.296875 0,0.109375 0.078125,0.1875 0.1875,0.1875 0.078125,0 0.09375,0 0.28125,-0.171875 l 0.765625,-0.671875 c 0.09375,0.09375 0.828125,0.84375 2.078125,0.84375 1.6875,0 2.921875,-1.375 2.921875,-2.921875 0,-0.921875 -0.390625,-1.5 -0.59375,-1.765625 C 6.21875,-4.6875 6.28125,-4.734375 6.3125,-4.78125 Z m -5.21875,4.015625 C 1.34375,-2.078125 1.34375,-2.6875 1.34375,-2.90625 1.34375,-4.34375 2.5,-5.4375 3.875,-5.4375 c 1.0625,0 1.65625,0.609375 1.75,0.71875 z m 4.078125,-3.03125 c 0.328125,0.4375 0.5,0.9375 0.5,1.515625 0,1.4375 -1.15625,2.53125 -2.53125,2.53125 -1.0625,0 -1.65625,-0.609375 -1.765625,-0.71875 z m 0,0"
   id="path3567" />
    </g>
  </g>
  <g
   clip-path="url(#clipPath1253)"
   id="g3579"
   transform="matrix(0.352778,0,0,0.352778,-0.198437,0.00136694)">
    <g
   fill="#000000"
   fill-opacity="1"
   id="g3577">
      <g
   id="g3575"
   transform="translate(7.7490001,6.9180002)">
        <path
   d="m 5.140625,-6.8125 c 0,0 0,-0.109375 -0.125,-0.109375 -0.15625,0 -1.09375,0.09375 -1.265625,0.109375 -0.078125,0.015625 -0.140625,0.0625 -0.140625,0.1875 0,0.125 0.09375,0.125 0.234375,0.125 0.484375,0 0.5,0.0625 0.5,0.171875 L 4.3125,-6.125 3.71875,-3.765625 C 3.53125,-4.140625 3.25,-4.40625 2.796875,-4.40625 c -1.15625,0 -2.390625,1.46875 -2.390625,2.921875 0,0.9375 0.546875,1.59375 1.3125,1.59375 0.203125,0 0.703125,-0.046875 1.296875,-0.75 0.078125,0.421875 0.4375,0.75 0.90625,0.75 0.359375,0 0.578125,-0.234375 0.75,-0.546875 0.15625,-0.359375 0.296875,-0.96875 0.296875,-0.984375 0,-0.109375 -0.09375,-0.109375 -0.125,-0.109375 -0.09375,0 -0.109375,0.046875 -0.140625,0.1875 -0.171875,0.640625 -0.34375,1.234375 -0.75,1.234375 -0.28125,0 -0.296875,-0.265625 -0.296875,-0.453125 0,-0.25 0.015625,-0.3125 0.046875,-0.484375 z m -2.0625,5.625 C 3.015625,-1 3.015625,-0.984375 2.875,-0.8125 2.4375,-0.265625 2.03125,-0.109375 1.75,-0.109375 c -0.5,0 -0.640625,-0.546875 -0.640625,-0.9375 0,-0.5 0.3125,-1.71875 0.546875,-2.1875 0.3125,-0.578125 0.75,-0.953125 1.15625,-0.953125 0.640625,0 0.78125,0.8125 0.78125,0.875 0,0.0625 -0.015625,0.125 -0.03125,0.171875 z m 0,0"
   id="path3573" />
      </g>
    </g>
  </g>
</g></svg>
